<?xml version="1.0" encoding="utf-8"?>
<!-- Generator: Adobe Illustrator 23.0.1, SVG Export Plug-In . SVG Version: 6.00 Build 0)  -->
<svg version="1.1" id="Layer_1" xmlns="http://www.w3.org/2000/svg" xmlns:xlink="http://www.w3.org/1999/xlink" x="0px" y="0px"
	 width="269.8px" height="122.9px" viewBox="0 0 269.8 122.9" style="enable-background:new 0 0 269.8 122.9;" xml:space="preserve"
	>
<style type="text/css">
	.st0{fill:#FAA41A;}
	.st1{fill:#003660;}
</style>
<g>
	<g>
		<g>
			<g>
				<path class="st0" d="M97.5,63.7c0.1-1.6,0-3.4-0.1-5.1c-0.2-1.8-0.5-3.6-0.9-5.5c-0.5-2.1-1.2-4.3-2.2-6.5
					c0.1-0.2,0.2-0.3,0.3-0.5l1.4-2.5c0.3-0.6,0.6-1.2,0.8-1.8c0.1-0.3,0.3-0.6,0.4-0.9c0.1-0.1,0.1-0.3,0.2-0.4
					c0.1-0.3,0.3-0.6,0.4-0.9l0.4-1.3c0.6-1.5,0.8-3,1.1-4.5l0.2-0.9c0.1-0.8,0.2-1.5,0.2-2.2l0.1-1.7c0-0.3,0-0.6,0-0.8
					c0-0.1,0-0.3,0-0.4l-0.1-2.4c0-0.5-0.1-1-0.2-1.5c0-0.2-0.1-0.5-0.1-0.7c0-0.2-0.1-0.5-0.1-0.7c-0.1-0.4-0.1-0.9-0.2-1.3l-1-3.4
					c-0.1-0.3-0.2-0.6-0.4-0.9l-0.2-0.4c-0.6-1.5-1-2.3-1.1-2.3c-0.1-0.2-0.4-0.4-0.6-0.3c-0.3,0.1-0.4,0.3-0.4,0.6
					c0,0,0.1,1,0.4,2.5c0,0.2,0.1,0.3,0.1,0.5c0.1,0.3,0.1,0.5,0.1,0.8l0.3,3.3c0,0.4,0,0.8,0,1.2c0,0.2,0,0.5,0,0.7
					c0,0.2,0,0.5,0,0.7c0,0.4,0,0.9,0,1.3l-0.2,2.2c0,0.1,0,0.3,0,0.4c0,0.2,0,0.5-0.1,0.7l-0.2,1.2c-0.1,0.4-0.1,0.7-0.2,1.1
					c-0.1,0.4-0.1,0.9-0.2,1.3l-0.6,2.5c-0.1,0.3-0.2,0.7-0.4,1.2l-0.8,2.4c-0.1,0.3-0.2,0.5-0.3,0.7c-0.1,0.1-0.1,0.3-0.2,0.4
					c-0.1,0.3-0.3,0.6-0.4,0.9c-0.2,0.5-0.4,1-0.7,1.5L91.9,42c-2.2-3.5-4.9-6.9-8.1-9.8C82.6,31,81.3,30,80,29
					c-0.2,0.5-0.4,0.9-0.6,1.4c-0.2,0.4-0.3,0.8-0.5,1.2c-0.2,0.4-0.4,0.8-0.6,1.1c-0.1,0.2-0.2,0.3-0.3,0.5
					c0.9,0.7,1.8,1.5,2.7,2.2c2.9,2.7,5.6,5.6,7.7,8.8c0.4,0.6,0.7,1.1,1,1.7c0,0-0.1,0.1-0.1,0.1c-0.2,0.4-0.5,0.7-0.7,1l-0.8,1
					c-0.2,0.2-0.4,0.5-0.6,0.7c-0.3,0.4-0.6,0.8-1,1.2c-0.4,0.4-0.8,0.8-1.2,1.3c-0.7,0.8-1.4,1.5-2.1,2.1L82.5,54
					c-0.4,0.3-0.7,0.6-1,0.9l-1.7,1.3c-0.8,0.6-1.6,1.2-2.3,1.7c-0.2,0.1-0.5,0.3-0.7,0.4l-1.3,0.8l-1.2,0.6
					C73,60.5,72.2,61,72.2,61c-0.2,0.1-0.3,0.4-0.2,0.7c0.1,0.2,0.3,0.3,0.5,0.3c0,0,0.1,0,0.1,0c0,0,0.9-0.2,2.5-0.7l1.3-0.4
					c0.3-0.1,0.6-0.3,1-0.4l1-0.4c0.9-0.4,2-0.8,3-1.5l1.9-1.1c0.4-0.3,0.9-0.6,1.3-0.9c0.2-0.2,0.4-0.3,0.7-0.5
					c1.2-0.8,2.4-1.9,3.6-3l0.4-0.4c0.4-0.4,0.8-0.9,1.2-1.3c0.2-0.2,0.4-0.5,0.6-0.7l0.5-0.6c0.6,1.3,1.1,2.6,1.5,3.9
					c1,3.3,1.6,6.6,1.7,9.7c0.1,3.1-0.1,5.9-0.4,8.4c-0.4,2.5-0.9,4.7-1.4,6.5c-0.5,1.8-0.9,3.2-1.3,4.1c-0.3,0.9-0.5,1.4-0.5,1.4
					s0.3-0.5,0.8-1.3c0.2-0.4,0.5-1,0.9-1.6c0.3-0.6,0.7-1.4,1.1-2.3c0.8-1.7,1.6-3.9,2.2-6.4C96.9,69.9,97.4,67,97.5,63.7"/>
				<path class="st0" d="M75,32.2c0.2-0.4,0.4-0.7,0.6-1.1c0.2-0.4,0.3-0.8,0.5-1.2c0.6-1.4,1.2-2.9,1.6-4.3c0.5-1.4,0.7-2.8,1-4.2
					c0.1-0.5,0.2-1,0.3-1.5c0.1-1,0.2-1.9,0.3-2.7l0.1-1.4L79.3,12c-0.1-0.5-0.1-1-0.2-1.5c0-0.3-0.1-0.5-0.1-0.8
					c0-0.2-0.1-0.5-0.1-0.7c-0.1-0.5-0.1-0.9-0.2-1.4l-0.9-3.5l-0.5-1.3c-0.6-1.6-1-2.4-1-2.4C76,0.1,75.8-0.1,75.5,0
					c-0.3,0.1-0.4,0.3-0.4,0.6c0,0,0.1,1,0.4,2.6l0.2,1.3l0.3,3.4c0,0.4,0,0.8,0,1.2c0,0.2,0,0.5,0,0.7v0.7c0,0.5,0,0.9,0,1.4
					l-0.3,3.3l-0.2,1.4c-0.1,0.4-0.2,0.9-0.2,1.4c-0.1,0.4-0.1,0.8-0.2,1.1c-0.1,0.4-0.2,0.8-0.3,1.2c-0.3,1.3-0.7,2.6-1.1,3.9
					c0,0.1-0.1,0.3-0.1,0.4c-0.1,0-0.2-0.1-0.2-0.1c-3.9-2.2-8-3.9-12.3-5c-4.2-1.1-8.5-1.6-12.7-1.5c-4.2,0-8.1,0.7-11.8,1.7
					c-3,0.8-5.7,2-8.2,3.3c4-3.4,8.6-6,13.4-7.9c5-1.9,10.4-2.9,15.8-3.1c-0.5-2.2-0.1-4.6,1.1-6.5c-6.6,0.2-13.1,1.6-19.1,4.2
					c-6.7,2.8-12.9,7.2-18,12.6c-4.7,5-8.4,11-10.8,17.3c-2.1,5.7-3.2,11.3-3.3,17.4c0,0.8,0,1.9,0,1.9H11c0,0,0-1.1,0.1-1.8
					c0.3-5.7,1.6-11,3.8-16.1c1.6-3.8,3.8-7.4,6.3-10.6c1.9-1.5,4.3-2.9,6.9-4.2c2.8-1.3,5.9-2.4,9.3-3.2c3.4-0.8,7.1-1.1,10.9-1
					c3.8,0.1,7.7,0.7,11.5,1.8c3.8,1,7.6,2.7,11.1,4.6c0.3,0.2,0.6,0.3,0.9,0.5c0,0.1-0.1,0.2-0.1,0.2c-0.2,0.4-0.4,0.8-0.6,1.2
					c-0.6,1.2-1.2,2.4-2,3.5c-0.7,1.2-1.5,2.3-2.2,3.3c-0.2,0.3-0.5,0.7-0.7,1c-0.3,0.3-0.5,0.6-0.8,0.9c-0.3,0.3-0.6,0.7-0.9,1
					L63.7,41l-2.5,2.5c-0.3,0.3-0.7,0.6-1,0.9c-0.2,0.2-0.4,0.3-0.6,0.5c-0.2,0.2-0.4,0.3-0.6,0.5c-0.3,0.3-0.6,0.6-0.9,0.8
					l-2.7,2.1c-0.3,0.2-0.5,0.3-0.7,0.5c-0.1,0.1-0.3,0.2-0.4,0.3c-1.4,0.9-2.2,1.5-2.2,1.5c-0.2,0.2-0.3,0.4-0.2,0.7
					c0.1,0.2,0.3,0.3,0.5,0.3c0.1,0,0.1,0,0.2,0c0,0,0.9-0.3,2.5-0.9l0.4-0.2c0.3-0.1,0.6-0.2,0.9-0.4l3.2-1.6
					c0.4-0.2,0.8-0.5,1.2-0.7c0.2-0.1,0.4-0.3,0.6-0.4c0.2-0.1,0.4-0.3,0.6-0.4c0.4-0.3,0.8-0.5,1.3-0.9l2.9-2.4l0.9-0.9
					c0.7-0.7,1.4-1.4,1.9-2c0.3-0.4,0.6-0.8,1-1.2c0.9-1.1,1.8-2.1,2.5-3.3C73.6,35,74.3,33.5,75,32.2"/>
				<path class="st0" d="M92.2,16.7c-0.7-1-1.8-1.6-3.1-1.8c-1.2-0.2-2.4,0.2-3.4,0.9c-2,1.5-2.4,4.4-0.8,6.5
					c0.9,1.2,2.3,1.8,3.7,1.8c1,0,2-0.3,2.8-1c1-0.7,1.6-1.8,1.8-3.1C93.3,18.9,93,17.7,92.2,16.7"/>
				<path class="st0" d="M110.8,44.2c-0.9-3.4-2-6.7-3.4-9.7c-0.9-1.9-1.7-3.4-2.5-4.7c-0.5-0.8-1-1.6-1.5-2.4l-0.5-0.7l0,0.7
					c0,0.2,0,0.3,0,0.5c0,0.3,0,0.6,0,0.9l-0.1,1.9c-0.1,0.8-0.1,1.6-0.2,2.4c-0.1,0.3-0.1,0.7-0.2,1c-0.3,1.6-0.6,3.3-1.2,4.9
					l-0.1,0.3c1,2.2,1.9,4.5,2.6,6.9c1.6,5.4,2.5,11,2.5,16.3c0.1,4.5-0.4,9.2-1.5,14c-0.9,3.6-2.1,7.1-3.7,10.3
					c-1.2,2.6-2.5,4.5-3.6,6.1c-1,1.3-1.5,2-1.5,2.1c-0.3,0.3-0.3,0.8,0,1.1c0.2,0.2,0.4,0.3,0.7,0.3c0.2,0,0.4-0.1,0.6-0.2
					c0,0,0.7-0.6,2-1.8c1.7-1.7,3.3-3.7,4.9-5.9c2.2-3.3,4-6.9,5.3-10.7c1.6-4.6,2.7-9.8,3.1-15.2C112.8,56,112.3,49.9,110.8,44.2"
					/>
				<path class="st0" d="M69.5,14.1c1.1-0.8,1.7-2,1.9-3.3c0.2-1.3-0.2-2.6-1-3.7c-0.8-1.1-2-1.7-3.3-1.9c-0.2,0-0.4,0-0.7,0
					c-1.1,0-2.1,0.4-3,1c-2.2,1.7-2.6,4.8-0.9,7C64.1,15.4,67.3,15.8,69.5,14.1"/>
				<path class="st1" d="M48.4,122.9c-12.1-17.3-23.9-34.5-36.2-51.7h-0.2v33.6c0,4.8,0.2,8.1,0.5,10.9c0.6,3.8,3.2,3.9,8.8,4.4v2.8
					H0v-2.8c4.5-0.4,7-0.7,7.5-4.4c0.4-2.8,0.6-6.1,0.6-10.9V71.5c0-4.9-0.2-5-7.7-5.5v-2.9h16.9c9.7,13.8,22,31.6,33.2,47.3
					l0.1,0.2V81.2c0-4.8-0.2-8.1-0.6-10.9c-0.5-3.8-3.3-3.9-8.9-4.3v-2.9h21.4V66c-4.5,0.4-6.8,0.5-7.3,4.3
					c-0.4,2.9-0.5,6.1-0.5,10.9v41.7H48.4z"/>
				<path class="st1" d="M93.7,122.9v-2.8l4-0.4c2.7-0.3,3.1-1.3,2.2-3.6c-1.5-4.2-4.6-13.1-5.7-16H74.9c-1.9,6.1-3.8,11-5.1,16.2
					c-0.7,2.2-0.5,3.1,2.1,3.4l4.5,0.5v2.8h-19v-2.8c5.4-0.3,6.2-1.3,8.1-5.9c6.2-16.1,12.5-34.4,18.3-51h7
					c4.9,14.2,13.7,39.2,18.3,51.9c1.6,4.4,2.5,4.6,7.4,5.1v2.8H93.7z M84.7,71.9h-0.3c-2.6,7.4-5.7,16.4-8.3,24.8h17
					C91.2,90.6,86.7,77.6,84.7,71.9"/>
				<path class="st1" d="M159.4,63.1v14.5h-2.9c-1.3-8.8-3.2-11.3-13.2-11.3h-7.9c-2.8,0-3.2,0.3-3.2,3.1v21.9h11.4
					c7.2,0,7.6-2.2,8.4-7.9h2.9v19.8h-2.9c-0.8-5.6-1.2-8.4-8.4-8.4h-11.4v19.8c0,4.8,0.3,4.9,9.1,5.5v2.8h-25.8v-2.8
					c7.5-0.5,7.7-0.7,7.7-5.5V71.4c0-4.8-0.2-4.9-7.7-5.4v-2.9H159.4z"/>
				<path class="st1" d="M195.5,78.9c-1.5-8.4-5.6-12.6-12.9-12.6c-7.1,0-11,4.5-11,10.4c0,6.5,7,9.7,12.5,11.7
					c10.3,3.7,17.9,7,17.9,17.7c0,8.7-6,16.8-21.4,16.8c-6,0-13.2-1.5-17-4.9l-0.9-13.3h2.9c2.3,9.3,7.5,15.1,15.5,15.1
					c7.6,0,12.3-3.9,12.3-11c0-6.8-7.2-10.3-13.5-12.5c-8.9-3-16.3-6.6-16.3-16.8c0-11.1,9.1-16.4,19.8-16.4
					c5.9,0,11.9,1.6,15.2,3.5v12.3H195.5z"/>
				<path class="st1" d="M234.2,122.9v-2.8l4-0.4c2.7-0.3,3.1-1.3,2.2-3.6c-1.5-4.2-4.6-13.1-5.7-16h-19.3c-1.9,6.1-3.8,11-5.1,16.2
					c-0.7,2.2-0.5,3.1,2.1,3.4l4.5,0.5v2.8h-19v-2.8c5.4-0.3,6.2-1.3,8.1-5.9c6.2-16.1,12.5-34.4,18.3-51h7
					c4.9,14.2,13.7,39.2,18.3,51.9c1.6,4.4,2.5,4.6,7.4,5.1v2.8H234.2z M225.3,71.9H225c-2.6,7.4-5.7,16.4-8.3,24.8h17
					C231.8,90.6,227.3,77.6,225.3,71.9"/>
			</g>
		</g>
	</g>
	<path class="st1" d="M264.3,122.9v-0.2c0.3,0,0.5-0.1,0.5-0.3c0-0.2,0-0.4,0-0.7v-2.1c0-0.3,0-0.3-0.5-0.4V119h1.4
		c0.2,0.5,0.4,1,0.7,1.5l0.6,1.3h0l0.6-1.3c0.2-0.5,0.5-1,0.7-1.5h1.4v0.2c-0.5,0-0.5,0.1-0.5,0.4v2.7c0,0.3,0,0.3,0.5,0.4v0.2H268
		v-0.2c0.5,0,0.5-0.1,0.5-0.4v-2.8h0l-1.6,3.3h-0.2l-1.5-3.3h0v2.2c0,0.3,0,0.5,0,0.7c0,0.2,0.2,0.3,0.7,0.3v0.2H264.3z
		 M262.6,122.3c0,0.3,0,0.3,0.6,0.4v0.2h-2v-0.2c0.6,0,0.6-0.1,0.6-0.4v-3h-0.3c-0.7,0-0.8,0.1-0.9,0.7h-0.2V119h3.6v0.9h-0.2
		c-0.1-0.6-0.2-0.7-0.9-0.7h-0.3V122.3z"/>
</g>
</svg>
