<svg width="31" height="31" viewBox="0 0 31 31" fill="none" xmlns="http://www.w3.org/2000/svg">
<path d="M30.0036 15.3052C30.0036 19.2823 28.4237 23.0964 25.6115 25.9086C22.7993 28.7208 18.9851 30.3007 15.008 30.3007C11.031 30.3007 7.21679 28.7208 4.40458 25.9086C1.59237 23.0964 0.012489 19.2823 0.0124888 15.3052C0.0124888 15.2163 0.0124888 15.1349 0.0124888 15.046C0.00104541 14.9402 0.00104541 14.8334 0.0124888 14.7276C0.00985588 14.4999 0.0222156 14.2723 0.0495057 14.0463C0.0495057 13.6983 0.108765 13.3576 0.160602 13.017C0.160602 12.8022 0.227222 12.5949 0.271653 12.395C0.316084 12.195 0.353143 12.0173 0.397574 11.8247C0.540513 11.2297 0.718527 10.6437 0.930727 10.0697C0.997374 9.87717 1.07883 9.68462 1.16029 9.49949C1.16251 9.46497 1.16251 9.43038 1.16029 9.39585L1.28616 9.13664C1.36347 8.95223 1.45 8.77183 1.54537 8.59608C1.66693 8.34169 1.8029 8.09444 1.95265 7.85556C3.58157 4.95985 6.12648 2.68746 9.18741 1.39548C12.2483 0.103507 15.6518 -0.134823 18.8629 0.71797C22.074 1.57076 24.9107 3.46633 26.9273 6.10677C28.9439 8.7472 30.026 11.9828 30.0036 15.3052Z" fill="#012169"/>
<path d="M15.0091 9.5V12.3955H0.294922C0.294922 12.2103 0.376366 12.0178 0.420798 11.8252C0.563737 11.2302 0.741796 10.6442 0.953996 10.0702C1.02064 9.87768 1.1021 9.68513 1.18356 9.5H15.0091Z" fill="white"/>
<path d="M7.75049 6.59717H4.84766V15.2835H7.75049V6.59717Z" fill="white"/>
<path d="M15.0082 10.0702V11.8252H7.18088V15.3057H5.41843V11.8252H0.419922C0.562861 11.2302 0.740921 10.6442 0.95312 10.0702H5.39624V6.59717H7.15868V10.0702H15.0082Z" fill="#CF142B"/>
<path d="M7.75 9.26304L13.0595 6.59717H15.0071V7.57465L11.1786 9.49261H7.75V9.26304Z" fill="white"/>
<path d="M7.90625 9.49261L13.7119 6.59717H15.0078L9.22438 9.49261H7.90625Z" fill="#CF142B"/>
<path d="M7.75 12.632L13.0595 15.2905H15.0071V14.313L11.1786 12.395H7.75V12.632Z" fill="white"/>
<path d="M4.84851 12.395V12.6246L0.0203013 15.0461C0.00885791 14.9403 0.00885791 14.8335 0.0203013 14.7276C0.0176684 14.5 0.0300281 14.2724 0.0573182 14.0464C0.0573182 13.6983 0.116578 13.3577 0.168414 13.017L1.40507 12.395H4.84851Z" fill="white"/>
<path d="M4.70077 12.395L0.0355031 14.7276C0.0328702 14.5 0.0452299 14.2724 0.07252 14.0464L3.38262 12.395H4.70077Z" fill="#CF142B"/>
<path d="M4.84927 9.25506V9.4994H1.42066L1.2207 9.39576L1.34658 9.13655C1.42389 8.95214 1.51042 8.77174 1.60579 8.59599C1.72734 8.3416 1.86332 8.09435 2.01307 7.85547L4.84927 9.25506Z" fill="white"/>
<path d="M3.40353 9.4996H2.0706L1.33008 9.13676C1.40739 8.95235 1.49387 8.77194 1.58924 8.59619L3.40353 9.4996Z" fill="#CF142B"/>
<path d="M15.0088 15.2905L9.20312 12.395H10.5287L15.0088 14.6314V15.2905Z" fill="#CF142B"/>
<path d="M19.2798 14.2687L18.6133 13.7726H19.4353L19.687 12.958L19.9462 13.7726H20.7682L20.1017 14.2687L20.3609 15.0759L19.687 14.5723L19.0206 15.0759L19.2798 14.2687Z" fill="#CF142B"/>
<path d="M20.9848 13.6986H19.9999L19.8296 13.158L19.6963 12.7285L19.5556 13.158L19.3853 13.6986H18.4004L18.7484 13.9578L19.2001 14.2984L19.0298 14.839L18.8891 15.2685L19.2445 14.9945L19.6963 14.6687L20.1406 14.9945L20.496 15.2685L20.3553 14.839L20.185 14.2984L20.6367 13.9578L20.9848 13.6986ZM19.6963 14.4835L19.1557 14.876L19.3705 14.2392L18.8373 13.8467H19.4889L19.6963 13.2098L19.8962 13.8467H20.5479L20.0147 14.2392L20.2295 14.876L19.6963 14.4835Z" fill="white"/>
<path d="M23.2585 20.6744L22.5254 20.1264H23.4288L23.7176 19.2378L23.999 20.1264H24.9099L24.1693 20.6744L24.4507 21.5704L23.7176 21.015L22.9771 21.5704L23.2585 20.6744Z" fill="#CF142B"/>
<path d="M25.1241 20.0521H24.043L23.8579 19.4375L23.7172 18.9932L23.5765 19.4375L23.3765 20.0521H22.3027L22.6582 20.3113L23.1766 20.7038L22.9766 21.3332L22.8359 21.7627L23.1988 21.4961L23.7172 21.1037L24.2281 21.4961L24.5835 21.7627L24.4577 21.3332L24.2577 20.7038L24.7761 20.3113L25.1241 20.0521ZM23.7172 20.926L23.1173 21.3703L23.3469 20.6297L22.7471 20.178H23.4876L23.7172 19.4375L23.9467 20.178H24.6872L24.0874 20.6297L24.317 21.3703L23.7172 20.926Z" fill="white"/>
<path d="M23.3032 10.2252L22.6367 9.72905H23.4587L23.7179 8.92188L23.9697 9.72905H24.7916L24.1252 10.2252L24.3843 11.025L23.7179 10.5288L23.044 11.025L23.3032 10.2252Z" fill="#CF142B"/>
<path d="M25.0059 9.65523H24.0284L23.8581 9.11466L23.7174 8.67773L23.5767 9.11466L23.4064 9.65523H22.4141L22.7695 9.91439L23.2138 10.2476L23.0435 10.7882L22.9102 11.2177L23.2657 10.9437L23.7174 10.6179L24.1543 10.9437L24.5172 11.2177L24.3838 10.7882L24.2135 10.2476L24.6579 9.91439L25.0059 9.65523ZM23.7174 10.4402L23.1546 10.8623L23.3545 10.218L22.8288 9.81816H23.4878L23.6877 9.18128L23.8877 9.81816H24.5468L24.0136 10.218L24.2135 10.8623L23.7174 10.4402Z" fill="white"/>
<path d="M27.1589 13.4467L26.5961 13.8688L26.8108 13.1801L26.248 12.758H26.9441L27.1589 12.0693L27.3811 12.758H28.0771L27.5143 13.1801L27.7291 13.8688L27.1589 13.4467Z" fill="#CF142B"/>
<path d="M28.2933 12.684H27.4344L27.301 12.2694L27.1677 11.8398L27.027 12.2694L26.8937 12.684H26.0273L26.3754 12.9432L26.7234 13.2098L26.5976 13.6393L26.4569 14.054L26.8123 13.7948L27.1677 13.5356L27.5084 13.7948L27.8638 14.0688L27.7379 13.6393L27.5972 13.2098L27.9453 12.9432L28.2933 12.684ZM27.1677 13.3579L26.7383 13.6763L26.8937 13.1579L26.4642 12.8395H26.9974L27.1677 12.3138L27.3233 12.8395H27.8638L27.4344 13.1579L27.5972 13.6763L27.1677 13.3579Z" fill="white"/>
</svg>
