<svg width="30" height="30" viewBox="0 0 30 30" fill="none" xmlns="http://www.w3.org/2000/svg">
<g clip-path="url(#clip0_526_11550)">
<path d="M22.4965 2.00751V27.9927C20.2171 29.3078 17.6318 30.0002 15.0002 30.0002C12.3686 30.0002 9.78331 29.3078 7.50391 27.9927V2.00751C9.78331 0.692364 12.3686 0 15.0002 0C17.6318 0 20.2171 0.692364 22.4965 2.00751Z" fill="white"/>
<path d="M18.0583 17.5556L20.8731 15.2741L20.2657 14.9926C20.2066 14.9665 20.1591 14.9198 20.1318 14.8612C20.1046 14.8026 20.0995 14.7362 20.1176 14.6741L20.6287 12.8519L18.9843 13.2001C18.9246 13.2118 18.8626 13.2008 18.8106 13.1693C18.7585 13.1378 18.7201 13.088 18.7028 13.0297L18.488 12.289L17.1324 13.7704C17.0995 13.8089 17.0547 13.8354 17.0051 13.8459C16.9556 13.8563 16.9039 13.85 16.8583 13.828C16.8126 13.8061 16.7755 13.7696 16.7528 13.7244C16.73 13.6791 16.7229 13.6276 16.7324 13.5778L17.3028 10.4667L16.4361 10.9037C16.366 10.9382 16.2854 10.9444 16.2109 10.9209C16.1364 10.8975 16.0738 10.8462 16.0361 10.7778L14.9991 8.8667L13.962 10.7778C13.9243 10.8462 13.8618 10.8975 13.7873 10.9209C13.7128 10.9444 13.6321 10.9382 13.562 10.9037L12.6954 10.4667L13.2657 13.5778C13.2753 13.6276 13.2681 13.6791 13.2454 13.7244C13.2226 13.7696 13.1855 13.8061 13.1398 13.828C13.0942 13.85 13.0426 13.8563 12.993 13.8459C12.9434 13.8354 12.8987 13.8089 12.8657 13.7704L11.5102 12.289L11.2954 13.0297C11.2781 13.088 11.2396 13.1378 11.1876 13.1693C11.1355 13.2008 11.0736 13.2118 11.0139 13.2001L9.36946 12.8519L9.88057 14.6741C9.89865 14.7362 9.89358 14.8026 9.86633 14.8612C9.83908 14.9198 9.7915 14.9665 9.73241 14.9926L9.125 15.2741L11.9398 17.5556C12.0015 17.6047 12.0466 17.6715 12.0691 17.747C12.0916 17.8225 12.0904 17.903 12.0657 17.9778L11.8213 18.7186L14.5546 18.3408C14.5913 18.3353 14.6287 18.338 14.6642 18.3487C14.6997 18.3593 14.7325 18.3777 14.7601 18.4024C14.7877 18.4272 14.8095 18.4577 14.8239 18.4919C14.8383 18.5261 14.845 18.563 14.8435 18.6L14.762 21.563H15.2361L15.1546 18.6C15.1531 18.563 15.1598 18.5261 15.1743 18.4919C15.1887 18.4577 15.2105 18.4272 15.2381 18.4024C15.2657 18.3777 15.2984 18.3593 15.3339 18.3487C15.3694 18.338 15.4068 18.3353 15.4435 18.3408L18.1768 18.7186L17.9324 17.9778C17.9077 17.903 17.9065 17.8225 17.929 17.747C17.9515 17.6715 17.9967 17.6047 18.0583 17.5556Z" fill="#FF0000"/>
<path d="M7.50384 2.00732V27.9925C5.22252 26.6763 3.32796 24.7825 2.01072 22.5018C0.693488 20.2211 0 17.6337 0 14.9999C0 12.3661 0.693488 9.77875 2.01072 7.498C3.32796 5.21726 5.22252 3.32355 7.50384 2.00732Z" fill="#FF0000"/>
<path d="M29.9998 14.9999C29.9983 17.6334 29.3042 20.2202 27.9871 22.5007C26.6701 24.7812 24.7764 26.6751 22.4961 27.9925V2.00732C24.7764 3.32472 26.6701 5.21865 27.9871 7.49913C29.3042 9.77962 29.9983 12.3664 29.9998 14.9999Z" fill="#FF0000"/>
</g>
<defs>
<clipPath id="clip0_526_11550">
<rect width="30" height="30" fill="white"/>
</clipPath>
</defs>
</svg>
