<svg width="30" height="30" viewBox="0 0 30 30" fill="none" xmlns="http://www.w3.org/2000/svg">
<g clip-path="url(#clip0_526_11601)">
<path d="M22.993 2.31111H7.00781C7.50153 1.99692 8.01355 1.71244 8.54115 1.45924L8.83001 1.33333C8.91111 1.29015 8.99531 1.25304 9.08188 1.22225C9.17817 1.1704 9.28185 1.13332 9.37815 1.08887C11.1393 0.377896 13.0197 0.00838868 14.9189 7.05025e-06H15.0004C17.8298 -0.00274246 20.6017 0.798767 22.993 2.31111Z" fill="#B22234"/>
<path d="M25.8082 4.62947H4.19336C5.02943 3.74242 5.97539 2.96577 7.00821 2.31836H22.9934C24.0262 2.96577 24.9721 3.74242 25.8082 4.62947Z" fill="white"/>
<path d="M27.6304 6.91839H2.4082C2.54894 6.70358 2.6897 6.48873 2.83785 6.28132L2.90449 6.17765C3.31205 5.63076 3.755 5.1111 4.23044 4.62207H25.8453C26.5161 5.32546 27.1142 6.09482 27.6304 6.91839Z" fill="#B22234"/>
<path d="M28.8522 9.22956H1.14844C1.23733 9.02216 1.33363 8.80731 1.42992 8.59991L1.83732 7.79253C2.00769 7.48882 2.17809 7.19994 2.37068 6.91846H27.6299C28.1011 7.65336 28.51 8.42643 28.8522 9.22956Z" fill="white"/>
<path d="M29.6004 11.5406H0.400391C0.584632 10.7515 0.832352 9.97865 1.14113 9.22949H28.8449C29.1587 9.9782 29.4114 10.7511 29.6004 11.5406Z" fill="#B22234"/>
<path d="M29.9478 13.8516H0.0515538C0.0401071 13.7458 0.0401071 13.639 0.0515538 13.5331C0.0435287 13.4098 0.0435287 13.2861 0.0515538 13.1628C0.0479677 13.111 0.0479677 13.059 0.0515538 13.0072C0.0515538 12.8887 0.0515538 12.7702 0.0515538 12.6591C0.110813 12.2813 0.184878 11.9183 0.273767 11.5405H29.4738C29.6969 12.2961 29.8555 13.0692 29.9478 13.8516Z" fill="white"/>
<path d="M30 15.0002C30.0052 15.3836 29.9879 15.767 29.9481 16.1483H0.0518389C-0.0172796 15.3845 -0.0172796 14.6159 0.0518389 13.8521H29.9481C29.9879 14.2334 30.0052 14.6168 30 15.0002Z" fill="#B22234"/>
<path d="M29.949 16.1479C29.898 16.9267 29.7816 17.6998 29.6009 18.4591H0.400861C0.220188 17.6998 0.103749 16.9267 0.0527344 16.1479H29.949Z" fill="white"/>
<path d="M29.6008 18.4595C29.4166 19.2485 29.1689 20.0214 28.8601 20.7706H1.14894C0.840165 20.0214 0.592444 19.2485 0.408203 18.4595H29.6008Z" fill="#B22234"/>
<path d="M28.8522 20.7705C28.5101 21.5736 28.1012 22.3467 27.63 23.0816H2.40779C1.93658 22.3467 1.52773 21.5736 1.18555 20.7705H28.8522Z" fill="white"/>
<path d="M27.6303 23.0815C27.1024 23.9068 26.4919 24.6762 25.8081 25.3779H4.19329C3.50954 24.6762 2.89902 23.9068 2.37109 23.0815H27.6303Z" fill="#B22234"/>
<path d="M25.8082 25.3706C24.9721 26.2577 24.0262 27.0343 22.9934 27.6817H7.00821C5.97539 27.0343 5.02943 26.2577 4.19336 25.3706H25.8082Z" fill="white"/>
<path d="M22.993 27.689C20.6005 29.1986 17.8294 29.9998 15.0004 29.9998C12.1714 29.9998 9.40032 29.1986 7.00781 27.689H22.993Z" fill="#B22234"/>
<path d="M14.9185 0.000150875V16.1483H0.0518389C-0.0172796 15.3844 -0.0172796 14.6159 0.0518389 13.852C0.0403921 13.7461 0.0403921 13.6394 0.0518389 13.5335C0.0438137 13.4102 0.0438137 13.2865 0.0518389 13.1631C0.0482527 13.1113 0.0482527 13.0593 0.0518389 13.0076C0.0518389 12.889 0.0518389 12.7705 0.0518389 12.6594C0.111098 12.2817 0.185163 11.9187 0.274052 11.5409C0.458293 10.7518 0.706014 9.97895 1.01479 9.2298C1.10368 9.02239 1.19998 8.80755 1.29628 8.60014L1.70368 7.79276C1.87405 7.48905 2.04444 7.20017 2.23703 6.91869C2.42963 6.63721 2.51848 6.48903 2.66663 6.28162L2.73332 6.17795C3.14088 5.63106 3.58378 5.1114 4.05923 4.62237C4.8953 3.73532 5.84126 2.95867 6.87408 2.31126C7.36779 1.99706 7.87977 1.71259 8.40737 1.45939L8.69627 1.33348C8.77737 1.29029 8.86157 1.25318 8.94814 1.22239C9.04444 1.17054 9.14812 1.13346 9.24441 1.08902C11.0472 0.361246 12.9744 -0.00857465 14.9185 0.000150875Z" fill="#3C3B6E"/>
<path d="M7.34828 2.31104L7.55569 2.94807H8.22235L7.68161 3.34067L7.88902 3.9777L7.34828 3.5777L6.80754 3.9777L7.00754 3.34067L6.4668 2.94807H7.14087L7.34828 2.31104Z" fill="white"/>
<path d="M11.1491 2.31104L11.3565 2.94807H12.0231L11.4824 3.34067L11.6898 3.9777L11.1491 3.5777L10.6083 3.9777L10.8157 3.34067L10.2676 2.94807H10.9417L11.1491 2.31104Z" fill="white"/>
<path d="M3.99336 6.91874L4.08966 7.20759L3.68963 6.91874L3.54889 6.82244L3.40815 6.91874L3.00075 7.20759L3.09705 6.91874L3.20818 6.57798L2.80078 6.28167L2.86742 6.178H3.34151L3.54889 5.54834L3.74891 6.178H4.42296L3.88223 6.57798L3.99336 6.91874Z" fill="white"/>
<path d="M7.34828 5.54834L7.55569 6.18538H8.22235L7.68161 6.57797L7.88902 7.21501L7.34828 6.82241L6.80754 7.21501L7.00754 6.57797L6.4668 6.18538H7.14087L7.34828 5.54834Z" fill="white"/>
<path d="M11.1491 5.54834L11.3565 6.18538H12.0231L11.4824 6.57797L11.6898 7.21501L11.1491 6.82241L10.6083 7.21501L10.8157 6.57797L10.2676 6.18538H10.9417L11.1491 5.54834Z" fill="white"/>
<path d="M3.5475 8.78516L3.7549 9.42219H4.42157L3.88083 9.81479L4.08824 10.4518L3.5475 10.0592L2.99935 10.4518L3.20676 9.81479L2.66602 9.42219H3.34009L3.5475 8.78516Z" fill="white"/>
<path d="M7.34828 8.78516L7.55569 9.42219H8.22235L7.68161 9.81479L7.88902 10.4518L7.34828 10.0592L6.80754 10.4518L7.00754 9.81479L6.4668 9.42219H7.14087L7.34828 8.78516Z" fill="white"/>
<path d="M11.1491 8.78516L11.3565 9.42219H12.0231L11.4824 9.81479L11.6898 10.4518L11.1491 10.0592L10.6083 10.4518L10.8157 9.81479L10.2676 9.42219H10.9417L11.1491 8.78516Z" fill="white"/>
<path d="M0.119059 13.1631L0.28946 13.689L0.0820312 13.5335C0.0862985 13.4093 0.0986615 13.2856 0.119059 13.1631Z" fill="white"/>
<path d="M0.622125 12.6592L0.140625 13.0073C0.140625 12.8888 0.140625 12.7703 0.140625 12.6592H0.622125Z" fill="white"/>
<path d="M3.5475 12.0225L3.7549 12.6595H4.42157L3.88083 13.0521L4.08824 13.6891L3.5475 13.2965L2.99935 13.6891L3.20676 13.0521L2.66602 12.6595H3.34009L3.5475 12.0225Z" fill="white"/>
<path d="M7.34828 12.0225L7.55569 12.6595H8.22235L7.68161 13.0521L7.88902 13.6891L7.34828 13.2965L6.80754 13.6891L7.00754 13.0521L6.4668 12.6595H7.14087L7.34828 12.0225Z" fill="white"/>
<path d="M11.1491 12.0225L11.3565 12.6595H12.0231L11.4824 13.0521L11.6898 13.6891L11.1491 13.2965L10.6083 13.6891L10.8157 13.0521L10.2676 12.6595H10.9417L11.1491 12.0225Z" fill="white"/>
<path d="M9.77059 2.31111V2.36296L9.69653 2.31111L9.22986 1.97035L8.74836 2.31111L8.68168 2.36296V2.31111L8.87428 1.73335L8.50391 1.45924L8.79281 1.33332H9.07429L9.11873 1.22224C9.21503 1.17039 9.31875 1.13331 9.41505 1.08887L9.4891 1.33332H10.1558L9.61502 1.73335L9.77059 2.31111Z" fill="white"/>
<path d="M13.044 0.696289L13.2514 1.33333H13.9255L13.3773 1.72592L13.5847 2.36296L13.044 1.97036L12.5033 2.36296L12.7107 1.72592L12.1699 1.33333H12.8366L13.044 0.696289Z" fill="white"/>
<path d="M5.44439 3.93311L5.65179 4.57014H6.31846L5.77772 4.96273L5.98513 5.59977L5.44439 5.20718L4.90365 5.59977L5.11105 4.96273L4.57031 4.57014H5.23698L5.44439 3.93311Z" fill="white"/>
<path d="M9.24517 3.93311L9.45257 4.57014H10.1192L9.5785 4.96273L9.78591 5.59977L9.24517 5.20718L8.70443 5.59977L8.91183 4.96273L8.37109 4.57014H9.03776L9.24517 3.93311Z" fill="white"/>
<path d="M13.044 3.93311L13.2514 4.57014H13.9255L13.3773 4.96273L13.5847 5.59977L13.044 5.20718L12.5033 5.59977L12.7107 4.96273L12.1699 4.57014H12.8366L13.044 3.93311Z" fill="white"/>
<path d="M1.97783 8.19988L2.19267 8.8369L1.6519 8.45171L1.42969 8.59986L1.83709 7.79248H2.50377L1.97783 8.19988Z" fill="white"/>
<path d="M5.44439 7.17041L5.65179 7.80745H6.31846L5.77772 8.20004L5.98513 8.83708L5.44439 8.44448L4.90365 8.83708L5.11105 8.20004L4.57031 7.80745H5.23698L5.44439 7.17041Z" fill="white"/>
<path d="M9.24517 7.17041L9.45257 7.80745H10.1192L9.5785 8.20004L9.78591 8.83708L9.24517 8.44448L8.70443 8.83708L8.91183 8.20004L8.37109 7.80745H9.03776L9.24517 7.17041Z" fill="white"/>
<path d="M13.044 7.17041L13.2514 7.80745H13.9255L13.3773 8.20004L13.5847 8.83708L13.044 8.44448L12.5033 8.83708L12.7107 8.20004L12.1699 7.80745H12.8366L13.044 7.17041Z" fill="white"/>
<path d="M1.64361 10.415L1.85101 11.0521H2.51768L1.97694 11.4447L2.18435 12.0817L1.64361 11.6891L1.10286 12.0817L1.31027 11.4447L0.769531 11.0521H1.4362L1.64361 10.415Z" fill="white"/>
<path d="M5.44439 10.415L5.65179 11.0521H6.31846L5.77772 11.4447L5.98513 12.0817L5.44439 11.6891L4.90365 12.0817L5.11105 11.4447L4.57031 11.0521H5.23698L5.44439 10.415Z" fill="white"/>
<path d="M9.24517 10.415L9.45257 11.0521H10.1192L9.5785 11.4447L9.78591 12.0817L9.24517 11.6891L8.70443 12.0817L8.91183 11.4447L8.37109 11.0521H9.03776L9.24517 10.415Z" fill="white"/>
<path d="M13.044 10.415L13.2514 11.0521H13.9255L13.3773 11.4447L13.5847 12.0817L13.044 11.6891L12.5033 12.0817L12.7107 11.4447L12.1699 11.0521H12.8366L13.044 10.415Z" fill="white"/>
<path d="M1.64361 13.6147L1.85101 14.2518H2.51768L1.97694 14.6444L2.18435 15.2814L1.64361 14.8888L1.10286 15.2814L1.31027 14.6444L0.769531 14.2518H1.4362L1.64361 13.6147Z" fill="white"/>
<path d="M5.44439 13.6147L5.65179 14.2518H6.31846L5.77772 14.6444L5.98513 15.2814L5.44439 14.8888L4.90365 15.2814L5.11105 14.6444L4.57031 14.2518H5.23698L5.44439 13.6147Z" fill="white"/>
<path d="M9.24517 13.6147L9.45257 14.2518H10.1192L9.5785 14.6444L9.78591 15.2814L9.24517 14.8888L8.70443 15.2814L8.91183 14.6444L8.37109 14.2518H9.03776L9.24517 13.6147Z" fill="white"/>
<path d="M13.044 13.6147L13.2514 14.2518H13.9255L13.3773 14.6444L13.5847 15.2814L13.044 14.8888L12.5033 15.2814L12.7107 14.6444L12.1699 14.2518H12.8366L13.044 13.6147Z" fill="white"/>
</g>
<defs>
<clipPath id="clip0_526_11601">
<rect width="30" height="30" fill="white"/>
</clipPath>
</defs>
</svg>
